Coordinates
version=1
nRows=14
nColumns=40
inDegrees=yes

Units are S.I. units (second, meters, Newtons, ...)
If the header above contains a line with 'inDegrees', this indicates whether rotational values are in degrees (yes) or radians (no).

endheader
time	pelvis_tilt	pelvis_list	pelvis_rotation	pelvis_tx	pelvis_ty	pelvis_tz	hip_flexion_r	hip_adduction_r	hip_rotation_r	knee_angle_r	knee_angle_r_beta	ankle_angle_r	subtalar_angle_r	mtp_angle_r	hip_flexion_l	hip_adduction_l	hip_rotation_l	knee_angle_l	knee_angle_l_beta	ankle_angle_l	subtalar_angle_l	mtp_angle_l	lumbar_extension	lumbar_bending	lumbar_rotation	arm_flex_r	arm_add_r	arm_rot_r	elbow_flex_r	pro_sup_r	wrist_flex_r	wrist_dev_r	arm_flex_l	arm_add_l	arm_rot_l	elbow_flex_l	pro_sup_l	wrist_flex_l	wrist_dev_l
      0.68000000	    -14.12164290	     -1.52161147	     -0.40829137	      0.16271133	      0.61240632	     -1.22166529	     76.57375597	    -44.11868615	     -4.42745655	     94.23132086	      1.64464681	     23.26048874	      9.21768629	      0.00000000	     81.01001400	    -46.00073645	     -2.69850069	     96.53559119	      1.68486391	     24.57082853	     14.11256394	      0.00000000	    -18.20861516	      1.45988432	     -4.92846214	     44.99167992	    -15.00137208	     44.99167992	     75.00021905	     45.00000025	      0.00000000	      0.00000000	     44.99167992	    -15.00137208	     44.99167992	     75.00021905	     45.00000025	      0.00000000	      0.00000000
      0.68500000	    -14.05722343	     -1.51723805	     -0.34841429	      0.16266178	      0.61027596	     -1.22172983	     76.88867036	    -44.27191602	     -4.13834266	     94.63785119	      1.65174210	     23.44426644	      9.21805890	      0.00000000	     81.32000911	    -45.96354677	     -2.37380866	     96.86423782	      1.69059988	     24.78324364	     14.02160120	      0.00000000	    -18.43215783	      1.56325210	     -4.94494199	     44.99182043	    -15.00133579	     44.99182043	     75.00021710	     45.00000025	      0.00000000	      0.00000000	     44.99182043	    -15.00133579	     44.99182043	     75.00021710	     45.00000025	      0.00000000	      0.00000000
      0.69000000	    -13.98356645	     -1.57272881	     -0.35985895	      0.16267877	      0.60792429	     -1.22174650	     77.15511337	    -44.36136588	     -3.90734479	     95.02683194	      1.65853110	     23.51031132	      9.52261338	      0.00000000	     81.79179640	    -46.07049354	     -1.90632419	     97.33344809	      1.69878914	     24.77745942	     14.25560388	      0.00000000	    -18.61454911	      1.55728061	     -4.95589596	     44.99195955	    -15.00130005	     44.99195955	     75.00021519	     45.00000025	      0.00000000	      0.00000000	     44.99195955	    -15.00130005	     44.99195955	     75.00021519	     45.00000025	      0.00000000	      0.00000000
      0.69500000	    -13.81821525	     -1.58172786	     -0.34730153	      0.16273805	      0.60603082	     -1.22175216	     77.31500497	    -44.47655243	     -3.65427637	     95.38691694	      1.66481576	     23.65620979	      9.69417162	      0.00000000	     82.00161795	    -46.14337068	     -1.60392779	     97.70062668	      1.70519762	     24.90344143	     14.37697634	      0.00000000	    -18.95037955	      1.57892387	     -4.95476296	     44.99207805	    -15.00127012	     44.99207805	     75.00021365	     45.00000025	      0.00000000	      0.00000000	     44.99207805	    -15.00127012	     44.99207805	     75.00021365	     45.00000025	      0.00000000	      0.00000000
      0.70000000	    -13.73299542	     -1.60478688	     -0.32828779	      0.16274989	      0.60384292	     -1.22174113	     77.59123895	    -44.58943502	     -3.38789781	     95.78665888	      1.67179258	     23.76979440	      9.85750708	      0.00000000	     82.36101400	    -46.18618464	     -1.21520543	     98.08449287	      1.71189735	     24.99589524	     14.46241741	      0.00000000	    -19.18107126	      1.61349013	     -4.97226746	     44.99220854	    -15.00123733	     44.99220854	     75.00021198	     45.00000025	      0.00000000	      0.00000000	     44.99220854	    -15.00123733	     44.99220854	     75.00021198	     45.00000025	      0.00000000	      0.00000000
      0.70500000	    -13.68231206	     -1.62208308	     -0.29509132	      0.16273354	      0.60155799	     -1.22175781	     77.92310837	    -44.71655114	     -3.10244799	     96.18452713	      1.67873669	     23.88955470	     10.00983130	      0.00000000	     82.76875500	    -46.20533410	     -0.82130079	     98.46923736	      1.71861240	     25.08899234	     14.53479743	      0.00000000	    -19.36134513	      1.65245729	     -4.97332071	     44.99235192	    -15.00120159	     44.99235192	     75.00021019	     45.00000025	      0.00000000	      0.00000000	     44.99235192	    -15.00120159	     44.99235192	     75.00021019	     45.00000025	      0.00000000	      0.00000000
      0.71000000	    -13.62244815	     -1.66991825	     -0.27888110	      0.16273371	      0.59936946	     -1.22172877	     78.19319609	    -44.81423769	     -2.88117384	     96.57701206	      1.68558684	     23.99429759	     10.15938252	      0.00000000	     83.18546489	    -46.25187086	     -0.39347959	     98.84471801	      1.72516578	     25.16790050	     14.62061660	      0.00000000	    -19.54722068	      1.70165407	     -4.98066130	     44.99250523	    -15.00116375	     44.99250523	     75.00020833	     45.00000025	      0.00000000	      0.00000000	     44.99250523	    -15.00116375	     44.99250523	     75.00020833	     45.00000025	      0.00000000	      0.00000000
      0.71500000	    -13.54750291	     -1.69382693	     -0.23264285	      0.16272102	      0.59720658	     -1.22174726	     78.47100179	    -44.92762765	     -2.60616794	     96.97377140	      1.69251160	     24.15097120	     10.25197446	      0.00000000	     83.55913093	    -46.24508844	      0.00789446	     99.22236647	      1.73175699	     25.30813071	     14.65709859	      0.00000000	    -19.77158142	      1.78597203	     -4.98742629	     44.99265059	    -15.00112831	     44.99265059	     75.00020663	     45.00000025	      0.00000000	      0.00000000	     44.99265059	    -15.00112831	     44.99265059	     75.00020663	     45.00000025	      0.00000000	      0.00000000
      0.72000000	    -13.45047573	     -1.70155016	     -0.22480159	      0.16278477	      0.59512839	     -1.22173000	     78.73188652	    -45.04250668	     -2.32953149	     97.33220571	      1.69876746	     24.23297884	     10.44548489	      0.00000000	     83.87351957	    -46.32204388	      0.32845946	     99.59698031	      1.73829523	     25.34983626	     14.79554465	      0.00000000	    -19.97906495	      1.80127549	     -4.96416989	     44.99280239	    -15.00109175	     44.99280239	     75.00020493	     45.00000025	      0.00000000	      0.00000000	     44.99280239	    -15.00109175	     44.99280239	     75.00020493	     45.00000025	      0.00000000	      0.00000000
      0.72500000	    -13.35827798	     -1.71411430	     -0.20047046	      0.16281511	      0.59303768	     -1.22169354	     78.99786213	    -45.15394629	     -2.05106543	     97.70964611	      1.70535504	     24.35023026	     10.60029804	      0.00000000	     84.19926004	    -46.36137064	      0.68215305	     99.95701184	      1.74457897	     25.43534154	     14.90050969	      0.00000000	    -20.21382723	      1.83453648	     -4.94829359	     44.99295283	    -15.00105597	     44.99295283	     75.00020330	     45.00000025	      0.00000000	      0.00000000	     44.99295283	    -15.00105597	     44.99295283	     75.00020330	     45.00000025	      0.00000000	      0.00000000
      0.73000000	    -13.26639037	     -1.71092507	     -0.15922231	      0.16282182	      0.59096684	     -1.22165612	     79.28040752	    -45.26739957	     -1.74699470	     98.10001114	      1.71216819	     24.48741307	     10.67871450	      0.00000000	     84.49791146	    -46.37007085	      1.00566338	    100.31155254	      1.75076687	     25.55638077	     14.93710298	      0.00000000	    -20.44165211	      1.88340933	     -4.92644398	     44.99309982	    -15.00102145	     44.99309982	     75.00020177	     45.00000025	      0.00000000	      0.00000000	     44.99309982	    -15.00102145	     44.99309982	     75.00020177	     45.00000025	      0.00000000	      0.00000000
      0.73500000	    -13.17401658	     -1.75042487	     -0.14143181	      0.16288427	      0.58893239	     -1.22166471	     79.49438514	    -45.37834341	     -1.52787504	     98.44020177	      1.71810564	     24.58872263	     10.86529251	      0.00000000	     84.85123940	    -46.42924371	      1.38852887	    100.67132880	      1.75704615	     25.62441598	     15.07121406	      0.00000000	    -20.66926495	      1.91113467	     -4.92204985	     44.99323365	    -15.00099039	     44.99323365	     75.00020042	     45.00000025	      0.00000000	      0.00000000	     44.99323365	    -15.00099039	     44.99323365	     75.00020042	     45.00000025	      0.00000000	      0.00000000
      0.74000000	    -13.05704341	     -1.77720928	     -0.10789766	      0.16294646	      0.58702574	     -1.22160297	     79.69050542	    -45.49283183	     -1.30425076	     98.80461938	      1.72446592	     24.69054202	     11.06612398	      0.00000000	     85.13091801	    -46.45881802	      1.74469936	    100.99100772	      1.76262560	     25.67278241	     15.22163505	      0.00000000	    -20.95495325	      1.95935947	     -4.93122604	     44.99335370	    -15.00096291	     44.99335370	     75.00019926	     45.00000025	      0.00000000	      0.00000000	     44.99335370	    -15.00096291	     44.99335370	     75.00019926	     45.00000025	      0.00000000	      0.00000000
      0.74500000	    -12.94952926	     -1.76728386	     -0.05846246	      0.16298291	      0.58499775	     -1.22162475	     79.94995560	    -45.62999056	     -0.98450027	     99.15833261	      1.73063938	     24.84366325	     11.15095693	      0.00000000	     85.40586732	    -46.46603898	      2.04555831	    101.34138266	      1.76874080	     25.82931379	     15.26024865	      0.00000000	    -21.21132096	      1.99023050	     -4.91424943	     44.99347741	    -15.00093493	     44.99347741	     75.00019811	     45.00000025	      0.00000000	      0.00000000	     44.99347741	    -15.00093493	     44.99347741	     75.00019811	     45.00000025	      0.00000000	      0.00000000
